<?xml version="1.0" encoding="UTF-8" standalone="no"?>
<svg
   viewBox="0 0 391 100"
   version="1.1"
   id="svg135"
   sodipodi:docname="logoLight.svg"
   inkscape:version="1.1.1 (c3084ef, 2021-09-22)"
   xmlns:inkscape="http://www.inkscape.org/namespaces/inkscape"
   xmlns:sodipodi="http://sodipodi.sourceforge.net/DTD/sodipodi-0.dtd"
   xmlns="http://www.w3.org/2000/svg"
   xmlns:svg="http://www.w3.org/2000/svg">
  <sodipodi:namedview
     id="namedview137"
     pagecolor="#ffffff"
     bordercolor="#666666"
     borderopacity="1.0"
     inkscape:pageshadow="2"
     inkscape:pageopacity="0.0"
     inkscape:pagecheckerboard="0"
     showgrid="false"
     inkscape:zoom="0.74808184"
     inkscape:cx="-32.750427"
     inkscape:cy="-154.39487"
     inkscape:window-width="1383"
     inkscape:window-height="1035"
     inkscape:window-x="2076"
     inkscape:window-y="23"
     inkscape:window-maximized="0"
     inkscape:current-layer="g133" />
  <defs
     id="defs121" />
  <g
     fill="none"
     fill-rule="evenodd"
     id="g133">
    <g
       fill="#ffffff"
       id="g127"
       style="fill:#e4833e;fill-opacity:1">
      <path
         d="m 150.99,53.64 c -3.15,0 -10.132,0.273 -10.132,4.78 0,2.459 2.601,3.62 4.86,3.62 4.04,0 7.804,-2.118 7.804,-6.214 V 53.64 Z m 2.532,10.38 h -0.137 c -2.259,3.55 -6.366,4.982 -10.542,4.982 -6.229,0 -11.843,-3.549 -11.843,-10.242 0,-11.47 13.965,-11.674 22.522,-11.674 0,-3.619 -3.011,-5.94 -6.572,-5.94 -3.354,0 -6.162,1.503 -8.351,3.96 l -5.476,-5.598 c 3.764,-3.55 9.241,-5.325 14.649,-5.325 11.98,0 15.197,6.076 15.197,17.137 v 16.865 h -9.447 z M 167.69,35.002 h 9.857 v 4.506 h 0.136 c 1.37,-2.595 4.725,-5.326 9.722,-5.326 10.406,0 12.324,6.828 12.324,15.703 v 18.3 h -10.27 V 51.933 c 0,-3.822 -0.068,-8.738 -5.34,-8.738 -5.34,0 -6.16,4.165 -6.16,8.467 v 16.523 h -10.27 V 35.002 Z"
         id="path123"
         style="fill:#e4833e;fill-opacity:1" />
      <path
         d="M 222.101,73.577 C 219.365,80.609 217.79,84.57 208,84.57 c -2.6,0 -5.201,-0.41 -7.666,-1.23 l 1.37,-8.398 c 1.574,0.684 3.08,1.026 4.792,1.026 4.655,0 5.408,-1.981 6.845,-5.6 l 0.754,-1.912 -14.583,-33.454 h 11.09 l 8.557,21.917 h 0.137 l 7.324,-21.917 h 10.543 l -15.06,38.575 z m 16.536,-38.575 h 9.859 v 4.506 h 0.137 c 1.37,-2.595 4.725,-5.326 9.72,-5.326 10.407,0 12.323,6.828 12.323,15.703 v 18.3 H 260.408 V 51.933 c 0,-3.822 -0.07,-8.738 -5.34,-8.738 -5.34,0 -6.16,4.165 -6.16,8.467 v 16.523 h -10.271 z m 37.098,33.183 h 10.27 V 35.002 h -10.27 z m 15.52,-33.183 h 9.86 v 4.506 h 0.138 c 1.37,-2.595 4.722,-5.326 9.719,-5.326 10.405,0 12.324,6.828 12.324,15.703 v 18.3 H 313.028 V 51.933 c 0,-3.822 -0.071,-8.738 -5.342,-8.738 -5.338,0 -6.16,4.165 -6.16,8.467 v 16.523 h -10.27 V 35.002 Z m 59.371,12.836 c 0.07,-3.414 -2.602,-6.282 -6.299,-6.282 -4.518,0 -6.982,3.072 -7.257,6.282 z m 8.693,14.611 c -3.284,4.165 -8.693,6.553 -14.034,6.553 -10.268,0 -18.483,-6.825 -18.483,-17.41 0,-10.582 8.215,-17.41 18.483,-17.41 9.587,0 15.609,6.828 15.609,17.41 v 3.21 H 337.07 c 0.824,3.89 3.767,6.417 7.739,6.417 3.352,0 5.612,-1.706 7.324,-4.029 z m 23.663,-17.684 c -1.508,-1.844 -3.493,-2.8 -5.957,-2.8 -1.712,0 -3.764,0.752 -3.764,2.731 0,4.916 17.32,0.752 17.32,13.382 0,8.467 -8.218,10.924 -15.335,10.924 -4.656,0 -9.792,-1.16 -13.073,-4.506 l 6.228,-6.895 c 1.916,2.321 4.174,3.617 7.254,3.617 2.327,0 4.656,-0.612 4.656,-2.388 0,-5.326 -17.321,-0.819 -17.321,-13.45 0,-7.784 6.983,-11.197 13.968,-11.197 4.379,0 9.24,1.092 12.321,4.369 z"
         id="path125"
         style="fill:#e4833e;fill-opacity:1" />
    </g>
    <path
       fill="#e4833e"
       d="M 50,100 C 77.614,100 100,77.614 100,50 100,22.386 77.614,0 50,0 22.386,0 0,22.386 0,50 c 0,27.614 22.386,50 50,50 z"
       id="path129"
       style="display:inline" />
    <path
       fill="#ffffff"
       d="m 40,49.93 c 0,2.047 0.3,4.022 0.855,5.888 h 8.26 A 12.989,12.989 0 0 1 47.71,49.93 c 0,-7.225 5.873,-13.08 13.123,-13.08 7.249,0 13.126,5.855 13.126,13.08 0,7.226 -5.877,13.082 -13.126,13.082 h -24.88 c -4.974,0 -9.005,-4.016 -9.005,-8.973 0,-4.956 4.03,-8.973 9.004,-8.973 0.325,-4.333 3.03,-7.83 3.03,-7.83 h -3.03 c -9.27,0 -16.785,7.49 -16.785,16.728 0,9.241 7.514,16.73 16.785,16.73 h 24.88 c 3.822,0 7.4,-1.029 10.477,-2.818 6.192,-3.6 10.358,-10.287 10.358,-17.946 0,-11.466 -9.328,-20.763 -20.834,-20.763 C 49.327,29.167 40,38.464 40,49.93 Z"
       id="path131" />
  </g>
</svg>
