<?xml version="1.0" encoding="UTF-8"?>
<svg width="391px" height="100px" viewBox="0 0 391 100" version="1.1" xmlns="http://www.w3.org/2000/svg" xmlns:xlink="http://www.w3.org/1999/xlink">
    <!-- Generator: Sketch 44.1 (41455) - http://www.bohemiancoding.com/sketch -->
    <title>logo-on-white-snake</title>
    <desc>Created with Sketch.</desc>
    <defs></defs>
    <g id="Page-1" stroke="none" stroke-width="1" fill="none" fill-rule="evenodd">
        <g id="a9s-style-tile" transform="translate(-1949.000000, -525.000000)">
            <g id="Group-9" transform="translate(1335.000000, 234.000000)">
                <g id="Group-10" transform="translate(0.000000, 168.000000)">
                    <g id="Group-2">
                        <g id="logo-variation-1" transform="translate(544.000000, 0.000000)">
                            <g id="logo-on-white-snake" transform="translate(70.000000, 123.000000)">
                                <g id="Group">
                                    <g id="Group-2" transform="translate(131.000000, 34.000000)" fill="#FFFFFF">
                                        <path d="M19.9903754,19.6398434 C16.8409373,19.6398434 9.85782266,19.9133388 9.85782266,24.4192574 C9.85782266,26.8787222 12.4591327,28.039804 14.717946,28.039804 C18.7580088,28.039804 22.522409,25.9220422 22.522409,21.8255916 L22.522409,19.6398434 L19.9903754,19.6398434 L19.9903754,19.6398434 Z M22.522409,30.0198659 L22.3851882,30.0198659 C20.1261973,33.5691488 16.019367,35.0023528 11.8427051,35.0023528 C5.61414908,35.0023528 0,31.4530479 0,24.7600746 C0,13.2903228 13.9649194,13.0863639 22.522409,13.0863639 C22.522409,9.46714599 19.5107912,7.14542531 15.9502904,7.14542531 C12.5957095,7.14542531 9.78825751,8.649096 7.59903158,11.1054605 L2.12272494,5.50755369 C5.88681424,1.95742931 11.3641201,0.182699308 16.7716164,0.182699308 C28.7519642,0.182699308 31.9691023,6.25872467 31.9691023,17.319673 L31.9691023,34.1849894 L22.522409,34.1849894 L22.522409,30.0198659 L22.522409,30.0198659 Z" id="Fill-2"></path>
                                        <path d="M36.6892293,1.00163511 L46.5466967,1.00163511 L46.5466967,5.50755369 L46.6834734,5.50755369 C48.0534604,2.91255916 51.4075972,0.182477854 56.4052743,0.182477854 C66.8107365,0.182477854 68.7293844,7.00989565 68.7293844,15.8853173 L68.7293844,34.1851223 L58.4587006,34.1851223 L58.4587006,17.9330997 C58.4587006,14.1114731 58.3914224,9.1949794 53.1188597,9.1949794 C47.7790189,9.1949794 46.9583589,13.3598592 46.9583589,17.661819 L46.9583589,34.1851223 L36.6892293,34.1851223 L36.6892293,1.00163511 L36.6892293,1.00163511 Z" id="Fill-3"></path>
                                        <path d="M91.10125,39.5765013 C88.3648286,46.6090295 86.7887887,50.5700613 76.9992658,50.5700613 C74.3998426,50.5700613 71.7975337,50.1606155 69.3331113,49.3396866 L70.7026542,40.9423392 C72.276696,41.6257675 73.783682,41.9678692 75.4949444,41.9678692 C80.1502357,41.9678692 80.9033952,39.9869658 82.3399943,36.3682793 L83.0938202,34.4562702 L68.5111191,1.00163511 L79.6009089,1.00163511 L88.1578876,22.91913 L88.29533,22.91913 L95.619321,1.00163511 L106.162004,1.00163511 L91.10125,39.5765013 L91.10125,39.5765013 Z" id="Fill-4"></path>
                                        <path d="M107.637015,1.00163511 L117.496038,1.00163511 L117.496038,5.50755369 L117.633036,5.50755369 C119.002801,2.91255916 122.358048,0.182477854 127.352617,0.182477854 C137.760077,0.182477854 139.675839,7.00989565 139.675839,15.8853173 L139.675839,34.1851223 L129.407819,34.1851223 L129.407819,17.9330997 C129.407819,14.1114731 129.33832,9.1949794 124.067312,9.1949794 C118.728138,9.1949794 117.907478,13.3598592 117.907478,17.661819 L117.907478,34.1851223 L107.637015,34.1851223 L107.637015,1.00163511 L107.637015,1.00163511 Z" id="Fill-5"></path>
                                        <polygon id="Fill-6" points="144.735021 34.1851665 155.005172 34.1851665 155.005172 1.00165726 144.735021 1.00165726"></polygon>
                                        <path d="M160.255397,1.00163511 L170.115085,1.00163511 L170.115085,5.50755369 L170.252528,5.50755369 C171.622071,2.91255916 174.975097,0.182477854 179.971664,0.182477854 C190.377126,0.182477854 192.295552,7.00989565 192.295552,15.8853173 L192.295552,34.1851223 L182.027533,34.1851223 L182.027533,17.9330997 C182.027533,14.1114731 181.956924,9.1949794 176.685916,9.1949794 C171.34763,9.1949794 170.526303,13.3598592 170.526303,17.661819 L170.526303,34.1851223 L160.255397,34.1851223 L160.255397,1.00163511 L160.255397,1.00163511 Z" id="Fill-7"></path>
                                        <path d="M219.626017,13.8375349 C219.695293,10.4240474 217.023929,7.55600047 213.326962,7.55600047 C208.809336,7.55600047 206.344914,10.6280063 206.070472,13.8375349 L219.626017,13.8375349 L219.626017,13.8375349 Z M228.319328,28.4490283 C225.035356,32.613886 219.626017,35.0021978 214.284621,35.0021978 C204.016824,35.0021978 195.802009,28.1766624 195.802009,17.5922825 C195.802009,7.00989565 204.016824,0.182477854 214.284621,0.182477854 C223.871866,0.182477854 229.893591,7.00989565 229.893591,17.5922825 L229.893591,20.8013682 L206.070472,20.8013682 C206.893575,24.6927527 209.836715,27.2186537 213.808568,27.2186537 C217.161372,27.2186537 219.421295,25.5127958 221.132558,23.1901893 L228.319328,28.4490283 L228.319328,28.4490283 Z" id="Fill-8"></path>
                                        <path d="M251.982135,10.7646433 C250.474483,8.92126259 248.489445,7.9659113 246.0248,7.9659113 C244.312872,7.9659113 242.261222,8.71730372 242.261222,10.6962141 C242.261222,15.6116005 259.580344,11.447828 259.580344,24.0784401 C259.580344,32.5454125 251.362643,35.0020871 244.246259,35.0020871 C239.59008,35.0020871 234.454294,33.8416032 231.172542,30.4964122 L237.400765,23.6009859 C239.316971,25.9220422 241.575118,27.2184322 244.654813,27.2184322 C246.981793,27.2184322 249.310993,26.6063342 249.310993,24.830054 C249.310993,19.5040924 231.989649,24.0113396 231.989649,11.3791773 C231.989649,3.59618675 238.972809,0.182699308 245.958188,0.182699308 C250.336817,0.182699308 255.197274,1.27468754 258.27919,4.55198095 L251.982135,10.7646433 L251.982135,10.7646433 Z" id="Fill-9"></path>
                                    </g>
                                    <g id="Page-1">
                                        <path d="M50,100 C77.6142375,100 100,77.6142375 100,50 C100,22.3857625 77.6142375,0 50,0 C22.3857625,0 0,22.3857625 0,50 C0,77.6142375 22.3857625,100 50,100 Z" id="Oval" fill="#E4833E"></path>
                                        <path d="M40.0001812,49.9295094 C40.0001812,51.9773618 40.3008083,53.9518243 40.8553105,55.8175608 L49.1141303,55.8175608 C48.2176852,54.0480467 47.7099352,52.0491209 47.7099352,49.9295094 C47.7099352,42.7046729 53.5827651,36.8503265 60.8326085,36.8503265 C68.0819083,36.8503265 73.9590872,42.7046729 73.9590872,49.9295094 C73.9590872,57.1559767 68.0819083,63.0119541 60.8326085,63.0119541 L35.9523157,63.0119541 C30.9786491,63.0119541 26.9481798,58.9956191 26.9481798,54.038805 C26.9481798,49.0830782 30.9786491,45.0661996 35.9523157,45.0661996 C36.2768625,40.7329286 38.9819631,37.2357598 38.9819631,37.2357598 L35.9523157,37.2357598 C26.6812577,37.2357598 19.1666667,44.7253439 19.1666667,53.9643278 C19.1666667,63.2054862 26.6812577,70.6934393 35.9523157,70.6934393 L60.8326085,70.6934393 C64.6537805,70.6934393 68.2314064,69.6654359 71.3094368,67.8758075 C77.5008336,64.2764363 81.6666667,57.5892495 81.6666667,49.9295094 C81.6666667,38.4638189 72.3390712,29.1666667 60.8326085,29.1666667 C49.3272331,29.1666667 40.0001812,38.4638189 40.0001812,49.9295094 L40.0001812,49.9295094 L40.0001812,49.9295094 Z" id="Fill-2" fill="#FFFFFF"></path>
                                    </g>
                                </g>
                            </g>
                        </g>
                    </g>
                </g>
            </g>
        </g>
    </g>
</svg>